<svg width="31" height="26" viewBox="0 0 31 26" fill="none" xmlns="http://www.w3.org/2000/svg">
<path d="M11.6976 22.0543L3.06361 13.4663C3.01382 13.4168 2.9743 13.358 2.94734 13.2931C2.92038 13.2283 2.90649 13.1587 2.90649 13.0885C2.90649 13.0183 2.92038 12.9488 2.94734 12.8839C2.9743 12.8191 3.01382 12.7602 3.06361 12.7107L5.2433 10.5286C5.45158 10.3203 5.78822 10.3203 5.9965 10.5286L11.6806 16.1788C11.8889 16.3871 12.228 16.3847 12.4363 16.1764L24.9961 3.49547C25.2044 3.28477 25.5435 3.28477 25.7542 3.49305L27.9363 5.67516C28.1445 5.88344 28.1445 6.22008 27.9387 6.42837L14.2551 20.2355L14.2575 20.2379L12.4532 22.0519C12.2449 22.2602 11.9059 22.2602 11.6976 22.0543Z" fill="#57E740" stroke="#57E740" stroke-width="6" stroke-miterlimit="10"/>
</svg>
